<?xml version="1.0" encoding="utf-8" standalone="no"?>
<!DOCTYPE svg PUBLIC "-//W3C//DTD SVG 1.1//EN"
  "http://www.w3.org/Graphics/SVG/1.1/DTD/svg11.dtd">
<!-- Created with matplotlib (http://matplotlib.org/) -->
<svg height="432pt" version="1.1" viewBox="0 0 576 432" width="576pt" xmlns="http://www.w3.org/2000/svg" xmlns:xlink="http://www.w3.org/1999/xlink">
 <defs>
  <style type="text/css">
*{stroke-linecap:butt;stroke-linejoin:round;stroke-miterlimit:100000;}
  </style>
 </defs>
 <g id="figure_1">
  <g id="patch_1">
   <path d="M 0 432 
L 576 432 
L 576 0 
L 0 0 
z
" style="fill:#ffffff;"/>
  </g>
  <g id="axes_1">
   <g id="patch_2">
    <path d="M 72 388.8 
L 518.4 388.8 
L 518.4 43.2 
L 72 43.2 
z
" style="fill:#ffffff;"/>
   </g>
   <g id="PathCollection_1">
    <defs>
     <path d="M 0 0.5 
C 0.132602 0.5 0.25979 0.447317 0.353553 0.353553 
C 0.447317 0.25979 0.5 0.132602 0.5 0 
C 0.5 -0.132602 0.447317 -0.25979 0.353553 -0.353553 
C 0.25979 -0.447317 0.132602 -0.5 0 -0.5 
C -0.132602 -0.5 -0.25979 -0.447317 -0.353553 -0.353553 
C -0.447317 -0.25979 -0.5 -0.132602 -0.5 0 
C -0.5 0.132602 -0.447317 0.25979 -0.353553 0.353553 
C -0.25979 0.447317 -0.132602 0.5 0 0.5 
z
" id="md4686537e5" style="stroke:#000000;"/>
    </defs>
    <g clip-path="url(#p5858a016c0)">
     <use style="stroke:#000000;" x="241.8552" xlink:href="#md4686537e5" y="123.576685714"/>
     <use style="stroke:#000000;" x="420.4152" xlink:href="#md4686537e5" y="202.570971429"/>
     <use style="stroke:#000000;" x="440.0568" xlink:href="#md4686537e5" y="213.630171429"/>
     <use style="stroke:#000000;" x="311.94" xlink:href="#md4686537e5" y="141.942857143"/>
     <use style="stroke:#000000;" x="206.1432" xlink:href="#md4686537e5" y="119.626971429"/>
     <use style="stroke:#000000;" x="166.86" xlink:href="#md4686537e5" y="117.257142857"/>
     <use style="stroke:#000000;" x="476.2152" xlink:href="#md4686537e5" y="266.753828571"/>
     <use style="stroke:#000000;" x="372.204" xlink:href="#md4686537e5" y="164.653714286"/>
     <use style="stroke:#000000;" x="404.3448" xlink:href="#md4686537e5" y="189.931885714"/>
     <use style="stroke:#000000;" x="447.1992" xlink:href="#md4686537e5" y="230.218971429"/>
     <use style="stroke:#000000;" x="358.3656" xlink:href="#md4686537e5" y="160.901485714"/>
     <use style="stroke:#000000;" x="302.5656" xlink:href="#md4686537e5" y="136.215771429"/>
     <use style="stroke:#000000;" x="391.8456" xlink:href="#md4686537e5" y="175.712914286"/>
     <use style="stroke:#000000;" x="483.3576" xlink:href="#md4686537e5" y="303.0912"/>
     <use style="stroke:#000000;" x="468.18" xlink:href="#md4686537e5" y="250.56"/>
    </g>
   </g>
   <g id="PathCollection_2">
    <g clip-path="url(#p5858a016c0)">
     <use style="stroke:#000000;" x="241.8552" xlink:href="#md4686537e5" y="123.576685714"/>
     <use style="stroke:#000000;" x="468.18" xlink:href="#md4686537e5" y="250.56"/>
     <use style="stroke:#000000;" x="391.8456" xlink:href="#md4686537e5" y="175.712914286"/>
     <use style="stroke:#000000;" x="302.5656" xlink:href="#md4686537e5" y="136.215771429"/>
     <use style="stroke:#000000;" x="420.4152" xlink:href="#md4686537e5" y="202.570971429"/>
     <use style="stroke:#000000;" x="358.3656" xlink:href="#md4686537e5" y="160.901485714"/>
     <use style="stroke:#000000;" x="447.1992" xlink:href="#md4686537e5" y="230.218971429"/>
     <use style="stroke:#000000;" x="440.0568" xlink:href="#md4686537e5" y="213.630171429"/>
     <use style="stroke:#000000;" x="404.3448" xlink:href="#md4686537e5" y="189.931885714"/>
     <use style="stroke:#000000;" x="311.94" xlink:href="#md4686537e5" y="141.942857143"/>
     <use style="stroke:#000000;" x="372.204" xlink:href="#md4686537e5" y="164.653714286"/>
     <use style="stroke:#000000;" x="476.2152" xlink:href="#md4686537e5" y="266.753828571"/>
     <use style="stroke:#000000;" x="166.86" xlink:href="#md4686537e5" y="117.257142857"/>
     <use style="stroke:#000000;" x="206.1432" xlink:href="#md4686537e5" y="119.626971429"/>
     <use style="stroke:#000000;" x="450.324" xlink:href="#md4686537e5" y="238.710857143"/>
     <use style="stroke:#000000;" x="338.724" xlink:href="#md4686537e5" y="149.842285714"/>
     <use style="stroke:#000000;" x="472.1976" xlink:href="#md4686537e5" y="258.656914286"/>
     <use style="stroke:#000000;" x="486.036" xlink:href="#md4686537e5" y="301.906285714"/>
     <use style="stroke:#000000;" x="452.556" xlink:href="#md4686537e5" y="247.597714286"/>
     <use style="stroke:#000000;" x="358.3656" xlink:href="#md4686537e5" y="160.901485714"/>
     <use style="stroke:#000000;" x="417.2904" xlink:href="#md4686537e5" y="194.079085714"/>
     <use style="stroke:#000000;" x="397.6488" xlink:href="#md4686537e5" y="183.019885714"/>
     <use style="stroke:#000000;" x="484.6968" xlink:href="#md4686537e5" y="292.624457143"/>
     <use style="stroke:#000000;" x="350.7768" xlink:href="#md4686537e5" y="154.384457143"/>
    </g>
   </g>
   <g id="PathCollection_3">
    <defs>
     <path d="M 0 0.707107 
C 0.187527 0.707107 0.367398 0.632602 0.5 0.5 
C 0.632602 0.367398 0.707107 0.187527 0.707107 0 
C 0.707107 -0.187527 0.632602 -0.367398 0.5 -0.5 
C 0.367398 -0.632602 0.187527 -0.707107 0 -0.707107 
C -0.187527 -0.707107 -0.367398 -0.632602 -0.5 -0.5 
C -0.632602 -0.367398 -0.707107 -0.187527 -0.707107 0 
C -0.707107 0.187527 -0.632602 0.367398 -0.5 0.5 
C -0.367398 0.632602 -0.187527 0.707107 0 0.707107 
z
" id="mff550ce50e" style="stroke:#000000;"/>
    </defs>
    <g clip-path="url(#p5858a016c0)">
     <use style="stroke:#000000;" x="467.2872" xlink:href="#mff550ce50e" y="250.954971429"/>
     <use style="stroke:#000000;" x="297.2088" xlink:href="#mff550ce50e" y="138.5856"/>
     <use style="stroke:#000000;" x="297.2088" xlink:href="#mff550ce50e" y="138.5856"/>
     <use style="stroke:#000000;" x="419.076" xlink:href="#mff550ce50e" y="213.037714286"/>
     <use style="stroke:#000000;" x="419.076" xlink:href="#mff550ce50e" y="213.037714286"/>
     <use style="stroke:#000000;" x="438.7176" xlink:href="#mff550ce50e" y="224.096914286"/>
     <use style="stroke:#000000;" x="473.9832" xlink:href="#mff550ce50e" y="277.615542857"/>
     <use style="stroke:#000000;" x="382.9176" xlink:href="#mff550ce50e" y="199.4112"/>
     <use style="stroke:#000000;" x="483.3576" xlink:href="#mff550ce50e" y="303.0912"/>
     <use style="stroke:#000000;" x="339.6168" xlink:href="#mff550ce50e" y="169.195885714"/>
    </g>
   </g>
   <g id="PathCollection_4">
    <defs>
     <path d="M 0 0.866025 
C 0.229673 0.866025 0.449969 0.774776 0.612372 0.612372 
C 0.774776 0.449969 0.866025 0.229673 0.866025 0 
C 0.866025 -0.229673 0.774776 -0.449969 0.612372 -0.612372 
C 0.449969 -0.774776 0.229673 -0.866025 0 -0.866025 
C -0.229673 -0.866025 -0.449969 -0.774776 -0.612372 -0.612372 
C -0.774776 -0.449969 -0.866025 -0.229673 -0.866025 0 
C -0.866025 0.229673 -0.774776 0.449969 -0.612372 0.612372 
C -0.449969 0.774776 -0.229673 0.866025 0 0.866025 
z
" id="m14b16e50f4" style="stroke:#000000;"/>
    </defs>
    <g clip-path="url(#p5858a016c0)">
     <use style="stroke:#000000;" x="461.484" xlink:href="#m14b16e50f4" y="263.396571429"/>
     <use style="stroke:#000000;" x="238.284" xlink:href="#m14b16e50f4" y="144.905142857"/>
     <use style="stroke:#000000;" x="376.2216" xlink:href="#m14b16e50f4" y="231.996342857"/>
     <use style="stroke:#000000;" x="357.4728" xlink:href="#m14b16e50f4" y="200.7936"/>
     <use style="stroke:#000000;" x="361.4904" xlink:href="#m14b16e50f4" y="228.639085714"/>
     <use style="stroke:#000000;" x="338.724" xlink:href="#m14b16e50f4" y="189.339428571"/>
    </g>
   </g>
   <g id="PathCollection_5">
    <defs>
     <path d="M 0 1 
C 0.265203 1 0.51958 0.894634 0.707107 0.707107 
C 0.894634 0.51958 1 0.265203 1 0 
C 1 -0.265203 0.894634 -0.51958 0.707107 -0.707107 
C 0.51958 -0.894634 0.265203 -1 0 -1 
C -0.265203 -1 -0.51958 -0.894634 -0.707107 -0.707107 
C -0.894634 -0.51958 -1 -0.265203 -1 0 
C -1 0.265203 -0.894634 0.51958 -0.707107 0.707107 
C -0.51958 0.894634 -0.265203 1 0 1 
z
" id="m89da36ebe9" style="stroke:#000000;"/>
    </defs>
    <g clip-path="url(#p5858a016c0)">
     <use style="stroke:#000000;" x="211.5" xlink:href="#m89da36ebe9" y="156.754285714"/>
     <use style="stroke:#000000;" x="307.9224" xlink:href="#m89da36ebe9" y="193.091657143"/>
    </g>
   </g>
   <g id="PathCollection_6">
    <defs>
     <path d="M 0 2.236068 
C 0.593012 2.236068 1.161816 2.000462 1.581139 1.581139 
C 2.000462 1.161816 2.236068 0.593012 2.236068 0 
C 2.236068 -0.593012 2.000462 -1.161816 1.581139 -1.581139 
C 1.161816 -2.000462 0.593012 -2.236068 0 -2.236068 
C -0.593012 -2.236068 -1.161816 -2.000462 -1.581139 -1.581139 
C -2.000462 -1.161816 -2.236068 -0.593012 -2.236068 0 
C -2.236068 0.593012 -2.000462 1.161816 -1.581139 1.581139 
C -1.161816 2.000462 -0.593012 2.236068 0 2.236068 
z
" id="m60d7264440" style="stroke:#000000;"/>
    </defs>
    <g clip-path="url(#p5858a016c0)">
     <use style="fill:#ff0000;stroke:#000000;" x="241.8552" xlink:href="#m60d7264440" y="123.576685714"/>
     <use style="fill:#ff0000;stroke:#000000;" x="350.7768" xlink:href="#m60d7264440" y="154.384457143"/>
     <use style="fill:#ff0000;stroke:#000000;" x="484.6968" xlink:href="#m60d7264440" y="292.624457143"/>
     <use style="fill:#ff0000;stroke:#000000;" x="397.6488" xlink:href="#m60d7264440" y="183.019885714"/>
     <use style="fill:#ff0000;stroke:#000000;" x="417.2904" xlink:href="#m60d7264440" y="194.079085714"/>
     <use style="fill:#ff0000;stroke:#000000;" x="468.18" xlink:href="#m60d7264440" y="250.56"/>
     <use style="fill:#ff0000;stroke:#000000;" x="358.3656" xlink:href="#m60d7264440" y="160.901485714"/>
     <use style="fill:#ff0000;stroke:#000000;" x="452.556" xlink:href="#m60d7264440" y="247.597714286"/>
     <use style="fill:#ff0000;stroke:#000000;" x="391.8456" xlink:href="#m60d7264440" y="175.712914286"/>
     <use style="fill:#ff0000;stroke:#000000;" x="302.5656" xlink:href="#m60d7264440" y="136.215771429"/>
     <use style="fill:#ff0000;stroke:#000000;" x="486.036" xlink:href="#m60d7264440" y="301.906285714"/>
     <use style="fill:#ff0000;stroke:#000000;" x="472.1976" xlink:href="#m60d7264440" y="258.656914286"/>
     <use style="fill:#ff0000;stroke:#000000;" x="420.4152" xlink:href="#m60d7264440" y="202.570971429"/>
     <use style="fill:#ff0000;stroke:#000000;" x="338.724" xlink:href="#m60d7264440" y="149.842285714"/>
     <use style="fill:#ff0000;stroke:#000000;" x="450.324" xlink:href="#m60d7264440" y="238.710857143"/>
    </g>
   </g>
   <g id="patch_3">
    <path d="M 72 43.2 
L 518.4 43.2 
" style="fill:none;stroke:#000000;stroke-linecap:square;stroke-linejoin:miter;"/>
   </g>
   <g id="patch_4">
    <path d="M 518.4 388.8 
L 518.4 43.2 
" style="fill:none;stroke:#000000;stroke-linecap:square;stroke-linejoin:miter;"/>
   </g>
   <g id="patch_5">
    <path d="M 72 388.8 
L 518.4 388.8 
" style="fill:none;stroke:#000000;stroke-linecap:square;stroke-linejoin:miter;"/>
   </g>
   <g id="patch_6">
    <path d="M 72 388.8 
L 72 43.2 
" style="fill:none;stroke:#000000;stroke-linecap:square;stroke-linejoin:miter;"/>
   </g>
   <g id="matplotlib.axis_1">
    <g id="xtick_1">
     <g id="line2d_1">
      <defs>
       <path d="M 0 0 
L 0 -4 
" id="m52805db05c" style="stroke:#000000;stroke-width:0.5;"/>
      </defs>
      <g>
       <use style="stroke:#000000;stroke-width:0.5;" x="99.9" xlink:href="#m52805db05c" y="388.8"/>
      </g>
     </g>
     <g id="line2d_2">
      <defs>
       <path d="M 0 0 
L 0 4 
" id="m0366db2ad9" style="stroke:#000000;stroke-width:0.5;"/>
      </defs>
      <g>
       <use style="stroke:#000000;stroke-width:0.5;" x="99.9" xlink:href="#m0366db2ad9" y="43.2"/>
      </g>
     </g>
     <g id="text_1">
      <!-- −140 -->
      <defs>
       <path d="M 10.59375 35.5 
L 73.1875 35.5 
L 73.1875 27.203125 
L 10.59375 27.203125 
z
" id="BitstreamVeraSans-Roman-2212"/>
       <path d="M 31.78125 66.40625 
Q 24.171875 66.40625 20.328125 58.90625 
Q 16.5 51.421875 16.5 36.375 
Q 16.5 21.390625 20.328125 13.890625 
Q 24.171875 6.390625 31.78125 6.390625 
Q 39.453125 6.390625 43.28125 13.890625 
Q 47.125 21.390625 47.125 36.375 
Q 47.125 51.421875 43.28125 58.90625 
Q 39.453125 66.40625 31.78125 66.40625 
M 31.78125 74.21875 
Q 44.046875 74.21875 50.515625 64.515625 
Q 56.984375 54.828125 56.984375 36.375 
Q 56.984375 17.96875 50.515625 8.265625 
Q 44.046875 -1.421875 31.78125 -1.421875 
Q 19.53125 -1.421875 13.0625 8.265625 
Q 6.59375 17.96875 6.59375 36.375 
Q 6.59375 54.828125 13.0625 64.515625 
Q 19.53125 74.21875 31.78125 74.21875 
" id="BitstreamVeraSans-Roman-30"/>
       <path d="M 12.40625 8.296875 
L 28.515625 8.296875 
L 28.515625 63.921875 
L 10.984375 60.40625 
L 10.984375 69.390625 
L 28.421875 72.90625 
L 38.28125 72.90625 
L 38.28125 8.296875 
L 54.390625 8.296875 
L 54.390625 0 
L 12.40625 0 
z
" id="BitstreamVeraSans-Roman-31"/>
       <path d="M 37.796875 64.3125 
L 12.890625 25.390625 
L 37.796875 25.390625 
z
M 35.203125 72.90625 
L 47.609375 72.90625 
L 47.609375 25.390625 
L 58.015625 25.390625 
L 58.015625 17.1875 
L 47.609375 17.1875 
L 47.609375 0 
L 37.796875 0 
L 37.796875 17.1875 
L 4.890625 17.1875 
L 4.890625 26.703125 
z
" id="BitstreamVeraSans-Roman-34"/>
      </defs>
      <g transform="translate(83.4196875 401.918125)scale(0.12 -0.12)">
       <use xlink:href="#BitstreamVeraSans-Roman-2212"/>
       <use x="83.7890625" xlink:href="#BitstreamVeraSans-Roman-31"/>
       <use x="147.412109375" xlink:href="#BitstreamVeraSans-Roman-34"/>
       <use x="211.03515625" xlink:href="#BitstreamVeraSans-Roman-30"/>
      </g>
     </g>
    </g>
    <g id="xtick_2">
     <g id="line2d_3">
      <g>
       <use style="stroke:#000000;stroke-width:0.5;" x="155.7" xlink:href="#m52805db05c" y="388.8"/>
      </g>
     </g>
     <g id="line2d_4">
      <g>
       <use style="stroke:#000000;stroke-width:0.5;" x="155.7" xlink:href="#m0366db2ad9" y="43.2"/>
      </g>
     </g>
     <g id="text_2">
      <!-- −120 -->
      <defs>
       <path d="M 19.1875 8.296875 
L 53.609375 8.296875 
L 53.609375 0 
L 7.328125 0 
L 7.328125 8.296875 
Q 12.9375 14.109375 22.625 23.890625 
Q 32.328125 33.6875 34.8125 36.53125 
Q 39.546875 41.84375 41.421875 45.53125 
Q 43.3125 49.21875 43.3125 52.78125 
Q 43.3125 58.59375 39.234375 62.25 
Q 35.15625 65.921875 28.609375 65.921875 
Q 23.96875 65.921875 18.8125 64.3125 
Q 13.671875 62.703125 7.8125 59.421875 
L 7.8125 69.390625 
Q 13.765625 71.78125 18.9375 73 
Q 24.125 74.21875 28.421875 74.21875 
Q 39.75 74.21875 46.484375 68.546875 
Q 53.21875 62.890625 53.21875 53.421875 
Q 53.21875 48.921875 51.53125 44.890625 
Q 49.859375 40.875 45.40625 35.40625 
Q 44.1875 33.984375 37.640625 27.21875 
Q 31.109375 20.453125 19.1875 8.296875 
" id="BitstreamVeraSans-Roman-32"/>
      </defs>
      <g transform="translate(139.2196875 401.918125)scale(0.12 -0.12)">
       <use xlink:href="#BitstreamVeraSans-Roman-2212"/>
       <use x="83.7890625" xlink:href="#BitstreamVeraSans-Roman-31"/>
       <use x="147.412109375" xlink:href="#BitstreamVeraSans-Roman-32"/>
       <use x="211.03515625" xlink:href="#BitstreamVeraSans-Roman-30"/>
      </g>
     </g>
    </g>
    <g id="xtick_3">
     <g id="line2d_5">
      <g>
       <use style="stroke:#000000;stroke-width:0.5;" x="211.5" xlink:href="#m52805db05c" y="388.8"/>
      </g>
     </g>
     <g id="line2d_6">
      <g>
       <use style="stroke:#000000;stroke-width:0.5;" x="211.5" xlink:href="#m0366db2ad9" y="43.2"/>
      </g>
     </g>
     <g id="text_3">
      <!-- −100 -->
      <g transform="translate(195.0196875 401.918125)scale(0.12 -0.12)">
       <use xlink:href="#BitstreamVeraSans-Roman-2212"/>
       <use x="83.7890625" xlink:href="#BitstreamVeraSans-Roman-31"/>
       <use x="147.412109375" xlink:href="#BitstreamVeraSans-Roman-30"/>
       <use x="211.03515625" xlink:href="#BitstreamVeraSans-Roman-30"/>
      </g>
     </g>
    </g>
    <g id="xtick_4">
     <g id="line2d_7">
      <g>
       <use style="stroke:#000000;stroke-width:0.5;" x="267.3" xlink:href="#m52805db05c" y="388.8"/>
      </g>
     </g>
     <g id="line2d_8">
      <g>
       <use style="stroke:#000000;stroke-width:0.5;" x="267.3" xlink:href="#m0366db2ad9" y="43.2"/>
      </g>
     </g>
     <g id="text_4">
      <!-- −80 -->
      <defs>
       <path d="M 31.78125 34.625 
Q 24.75 34.625 20.71875 30.859375 
Q 16.703125 27.09375 16.703125 20.515625 
Q 16.703125 13.921875 20.71875 10.15625 
Q 24.75 6.390625 31.78125 6.390625 
Q 38.8125 6.390625 42.859375 10.171875 
Q 46.921875 13.96875 46.921875 20.515625 
Q 46.921875 27.09375 42.890625 30.859375 
Q 38.875 34.625 31.78125 34.625 
M 21.921875 38.8125 
Q 15.578125 40.375 12.03125 44.71875 
Q 8.5 49.078125 8.5 55.328125 
Q 8.5 64.0625 14.71875 69.140625 
Q 20.953125 74.21875 31.78125 74.21875 
Q 42.671875 74.21875 48.875 69.140625 
Q 55.078125 64.0625 55.078125 55.328125 
Q 55.078125 49.078125 51.53125 44.71875 
Q 48 40.375 41.703125 38.8125 
Q 48.828125 37.15625 52.796875 32.3125 
Q 56.78125 27.484375 56.78125 20.515625 
Q 56.78125 9.90625 50.3125 4.234375 
Q 43.84375 -1.421875 31.78125 -1.421875 
Q 19.734375 -1.421875 13.25 4.234375 
Q 6.78125 9.90625 6.78125 20.515625 
Q 6.78125 27.484375 10.78125 32.3125 
Q 14.796875 37.15625 21.921875 38.8125 
M 18.3125 54.390625 
Q 18.3125 48.734375 21.84375 45.5625 
Q 25.390625 42.390625 31.78125 42.390625 
Q 38.140625 42.390625 41.71875 45.5625 
Q 45.3125 48.734375 45.3125 54.390625 
Q 45.3125 60.0625 41.71875 63.234375 
Q 38.140625 66.40625 31.78125 66.40625 
Q 25.390625 66.40625 21.84375 63.234375 
Q 18.3125 60.0625 18.3125 54.390625 
" id="BitstreamVeraSans-Roman-38"/>
      </defs>
      <g transform="translate(254.6371875 401.918125)scale(0.12 -0.12)">
       <use xlink:href="#BitstreamVeraSans-Roman-2212"/>
       <use x="83.7890625" xlink:href="#BitstreamVeraSans-Roman-38"/>
       <use x="147.412109375" xlink:href="#BitstreamVeraSans-Roman-30"/>
      </g>
     </g>
    </g>
    <g id="xtick_5">
     <g id="line2d_9">
      <g>
       <use style="stroke:#000000;stroke-width:0.5;" x="323.1" xlink:href="#m52805db05c" y="388.8"/>
      </g>
     </g>
     <g id="line2d_10">
      <g>
       <use style="stroke:#000000;stroke-width:0.5;" x="323.1" xlink:href="#m0366db2ad9" y="43.2"/>
      </g>
     </g>
     <g id="text_5">
      <!-- −60 -->
      <defs>
       <path d="M 33.015625 40.375 
Q 26.375 40.375 22.484375 35.828125 
Q 18.609375 31.296875 18.609375 23.390625 
Q 18.609375 15.53125 22.484375 10.953125 
Q 26.375 6.390625 33.015625 6.390625 
Q 39.65625 6.390625 43.53125 10.953125 
Q 47.40625 15.53125 47.40625 23.390625 
Q 47.40625 31.296875 43.53125 35.828125 
Q 39.65625 40.375 33.015625 40.375 
M 52.59375 71.296875 
L 52.59375 62.3125 
Q 48.875 64.0625 45.09375 64.984375 
Q 41.3125 65.921875 37.59375 65.921875 
Q 27.828125 65.921875 22.671875 59.328125 
Q 17.53125 52.734375 16.796875 39.40625 
Q 19.671875 43.65625 24.015625 45.921875 
Q 28.375 48.1875 33.59375 48.1875 
Q 44.578125 48.1875 50.953125 41.515625 
Q 57.328125 34.859375 57.328125 23.390625 
Q 57.328125 12.15625 50.6875 5.359375 
Q 44.046875 -1.421875 33.015625 -1.421875 
Q 20.359375 -1.421875 13.671875 8.265625 
Q 6.984375 17.96875 6.984375 36.375 
Q 6.984375 53.65625 15.1875 63.9375 
Q 23.390625 74.21875 37.203125 74.21875 
Q 40.921875 74.21875 44.703125 73.484375 
Q 48.484375 72.75 52.59375 71.296875 
" id="BitstreamVeraSans-Roman-36"/>
      </defs>
      <g transform="translate(310.4371875 401.918125)scale(0.12 -0.12)">
       <use xlink:href="#BitstreamVeraSans-Roman-2212"/>
       <use x="83.7890625" xlink:href="#BitstreamVeraSans-Roman-36"/>
       <use x="147.412109375" xlink:href="#BitstreamVeraSans-Roman-30"/>
      </g>
     </g>
    </g>
    <g id="xtick_6">
     <g id="line2d_11">
      <g>
       <use style="stroke:#000000;stroke-width:0.5;" x="378.9" xlink:href="#m52805db05c" y="388.8"/>
      </g>
     </g>
     <g id="line2d_12">
      <g>
       <use style="stroke:#000000;stroke-width:0.5;" x="378.9" xlink:href="#m0366db2ad9" y="43.2"/>
      </g>
     </g>
     <g id="text_6">
      <!-- −40 -->
      <g transform="translate(366.2371875 401.918125)scale(0.12 -0.12)">
       <use xlink:href="#BitstreamVeraSans-Roman-2212"/>
       <use x="83.7890625" xlink:href="#BitstreamVeraSans-Roman-34"/>
       <use x="147.412109375" xlink:href="#BitstreamVeraSans-Roman-30"/>
      </g>
     </g>
    </g>
    <g id="xtick_7">
     <g id="line2d_13">
      <g>
       <use style="stroke:#000000;stroke-width:0.5;" x="434.7" xlink:href="#m52805db05c" y="388.8"/>
      </g>
     </g>
     <g id="line2d_14">
      <g>
       <use style="stroke:#000000;stroke-width:0.5;" x="434.7" xlink:href="#m0366db2ad9" y="43.2"/>
      </g>
     </g>
     <g id="text_7">
      <!-- −20 -->
      <g transform="translate(422.0371875 401.918125)scale(0.12 -0.12)">
       <use xlink:href="#BitstreamVeraSans-Roman-2212"/>
       <use x="83.7890625" xlink:href="#BitstreamVeraSans-Roman-32"/>
       <use x="147.412109375" xlink:href="#BitstreamVeraSans-Roman-30"/>
      </g>
     </g>
    </g>
    <g id="xtick_8">
     <g id="line2d_15">
      <g>
       <use style="stroke:#000000;stroke-width:0.5;" x="490.5" xlink:href="#m52805db05c" y="388.8"/>
      </g>
     </g>
     <g id="line2d_16">
      <g>
       <use style="stroke:#000000;stroke-width:0.5;" x="490.5" xlink:href="#m0366db2ad9" y="43.2"/>
      </g>
     </g>
     <g id="text_8">
      <!-- 0 -->
      <g transform="translate(486.6825 401.918125)scale(0.12 -0.12)">
       <use xlink:href="#BitstreamVeraSans-Roman-30"/>
      </g>
     </g>
    </g>
   </g>
   <g id="matplotlib.axis_2">
    <g id="ytick_1">
     <g id="line2d_17">
      <defs>
       <path d="M 0 0 
L 4 0 
" id="meab081a3e0" style="stroke:#000000;stroke-width:0.5;"/>
      </defs>
      <g>
       <use style="stroke:#000000;stroke-width:0.5;" x="72.0" xlink:href="#meab081a3e0" y="388.8"/>
      </g>
     </g>
     <g id="line2d_18">
      <defs>
       <path d="M 0 0 
L -4 0 
" id="m8d3e74d8ba" style="stroke:#000000;stroke-width:0.5;"/>
      </defs>
      <g>
       <use style="stroke:#000000;stroke-width:0.5;" x="518.4" xlink:href="#m8d3e74d8ba" y="388.8"/>
      </g>
     </g>
     <g id="text_9">
      <!-- −60 -->
      <g transform="translate(42.674375 392.11125)scale(0.12 -0.12)">
       <use xlink:href="#BitstreamVeraSans-Roman-2212"/>
       <use x="83.7890625" xlink:href="#BitstreamVeraSans-Roman-36"/>
       <use x="147.412109375" xlink:href="#BitstreamVeraSans-Roman-30"/>
      </g>
     </g>
    </g>
    <g id="ytick_2">
     <g id="line2d_19">
      <g>
       <use style="stroke:#000000;stroke-width:0.5;" x="72.0" xlink:href="#meab081a3e0" y="339.428571429"/>
      </g>
     </g>
     <g id="line2d_20">
      <g>
       <use style="stroke:#000000;stroke-width:0.5;" x="518.4" xlink:href="#m8d3e74d8ba" y="339.428571429"/>
      </g>
     </g>
     <g id="text_10">
      <!-- −50 -->
      <defs>
       <path d="M 10.796875 72.90625 
L 49.515625 72.90625 
L 49.515625 64.59375 
L 19.828125 64.59375 
L 19.828125 46.734375 
Q 21.96875 47.46875 24.109375 47.828125 
Q 26.265625 48.1875 28.421875 48.1875 
Q 40.625 48.1875 47.75 41.5 
Q 54.890625 34.8125 54.890625 23.390625 
Q 54.890625 11.625 47.5625 5.09375 
Q 40.234375 -1.421875 26.90625 -1.421875 
Q 22.3125 -1.421875 17.546875 -0.640625 
Q 12.796875 0.140625 7.71875 1.703125 
L 7.71875 11.625 
Q 12.109375 9.234375 16.796875 8.0625 
Q 21.484375 6.890625 26.703125 6.890625 
Q 35.15625 6.890625 40.078125 11.328125 
Q 45.015625 15.765625 45.015625 23.390625 
Q 45.015625 31 40.078125 35.4375 
Q 35.15625 39.890625 26.703125 39.890625 
Q 22.75 39.890625 18.8125 39.015625 
Q 14.890625 38.140625 10.796875 36.28125 
z
" id="BitstreamVeraSans-Roman-35"/>
      </defs>
      <g transform="translate(42.674375 342.739821429)scale(0.12 -0.12)">
       <use xlink:href="#BitstreamVeraSans-Roman-2212"/>
       <use x="83.7890625" xlink:href="#BitstreamVeraSans-Roman-35"/>
       <use x="147.412109375" xlink:href="#BitstreamVeraSans-Roman-30"/>
      </g>
     </g>
    </g>
    <g id="ytick_3">
     <g id="line2d_21">
      <g>
       <use style="stroke:#000000;stroke-width:0.5;" x="72.0" xlink:href="#meab081a3e0" y="290.057142857"/>
      </g>
     </g>
     <g id="line2d_22">
      <g>
       <use style="stroke:#000000;stroke-width:0.5;" x="518.4" xlink:href="#m8d3e74d8ba" y="290.057142857"/>
      </g>
     </g>
     <g id="text_11">
      <!-- −40 -->
      <g transform="translate(42.674375 293.368392857)scale(0.12 -0.12)">
       <use xlink:href="#BitstreamVeraSans-Roman-2212"/>
       <use x="83.7890625" xlink:href="#BitstreamVeraSans-Roman-34"/>
       <use x="147.412109375" xlink:href="#BitstreamVeraSans-Roman-30"/>
      </g>
     </g>
    </g>
    <g id="ytick_4">
     <g id="line2d_23">
      <g>
       <use style="stroke:#000000;stroke-width:0.5;" x="72.0" xlink:href="#meab081a3e0" y="240.685714286"/>
      </g>
     </g>
     <g id="line2d_24">
      <g>
       <use style="stroke:#000000;stroke-width:0.5;" x="518.4" xlink:href="#m8d3e74d8ba" y="240.685714286"/>
      </g>
     </g>
     <g id="text_12">
      <!-- −30 -->
      <defs>
       <path d="M 40.578125 39.3125 
Q 47.65625 37.796875 51.625 33 
Q 55.609375 28.21875 55.609375 21.1875 
Q 55.609375 10.40625 48.1875 4.484375 
Q 40.765625 -1.421875 27.09375 -1.421875 
Q 22.515625 -1.421875 17.65625 -0.515625 
Q 12.796875 0.390625 7.625 2.203125 
L 7.625 11.71875 
Q 11.71875 9.328125 16.59375 8.109375 
Q 21.484375 6.890625 26.8125 6.890625 
Q 36.078125 6.890625 40.9375 10.546875 
Q 45.796875 14.203125 45.796875 21.1875 
Q 45.796875 27.640625 41.28125 31.265625 
Q 36.765625 34.90625 28.71875 34.90625 
L 20.21875 34.90625 
L 20.21875 43.015625 
L 29.109375 43.015625 
Q 36.375 43.015625 40.234375 45.921875 
Q 44.09375 48.828125 44.09375 54.296875 
Q 44.09375 59.90625 40.109375 62.90625 
Q 36.140625 65.921875 28.71875 65.921875 
Q 24.65625 65.921875 20.015625 65.03125 
Q 15.375 64.15625 9.8125 62.3125 
L 9.8125 71.09375 
Q 15.4375 72.65625 20.34375 73.4375 
Q 25.25 74.21875 29.59375 74.21875 
Q 40.828125 74.21875 47.359375 69.109375 
Q 53.90625 64.015625 53.90625 55.328125 
Q 53.90625 49.265625 50.4375 45.09375 
Q 46.96875 40.921875 40.578125 39.3125 
" id="BitstreamVeraSans-Roman-33"/>
      </defs>
      <g transform="translate(42.674375 243.996964286)scale(0.12 -0.12)">
       <use xlink:href="#BitstreamVeraSans-Roman-2212"/>
       <use x="83.7890625" xlink:href="#BitstreamVeraSans-Roman-33"/>
       <use x="147.412109375" xlink:href="#BitstreamVeraSans-Roman-30"/>
      </g>
     </g>
    </g>
    <g id="ytick_5">
     <g id="line2d_25">
      <g>
       <use style="stroke:#000000;stroke-width:0.5;" x="72.0" xlink:href="#meab081a3e0" y="191.314285714"/>
      </g>
     </g>
     <g id="line2d_26">
      <g>
       <use style="stroke:#000000;stroke-width:0.5;" x="518.4" xlink:href="#m8d3e74d8ba" y="191.314285714"/>
      </g>
     </g>
     <g id="text_13">
      <!-- −20 -->
      <g transform="translate(42.674375 194.625535714)scale(0.12 -0.12)">
       <use xlink:href="#BitstreamVeraSans-Roman-2212"/>
       <use x="83.7890625" xlink:href="#BitstreamVeraSans-Roman-32"/>
       <use x="147.412109375" xlink:href="#BitstreamVeraSans-Roman-30"/>
      </g>
     </g>
    </g>
    <g id="ytick_6">
     <g id="line2d_27">
      <g>
       <use style="stroke:#000000;stroke-width:0.5;" x="72.0" xlink:href="#meab081a3e0" y="141.942857143"/>
      </g>
     </g>
     <g id="line2d_28">
      <g>
       <use style="stroke:#000000;stroke-width:0.5;" x="518.4" xlink:href="#m8d3e74d8ba" y="141.942857143"/>
      </g>
     </g>
     <g id="text_14">
      <!-- −10 -->
      <g transform="translate(42.674375 145.254107143)scale(0.12 -0.12)">
       <use xlink:href="#BitstreamVeraSans-Roman-2212"/>
       <use x="83.7890625" xlink:href="#BitstreamVeraSans-Roman-31"/>
       <use x="147.412109375" xlink:href="#BitstreamVeraSans-Roman-30"/>
      </g>
     </g>
    </g>
    <g id="ytick_7">
     <g id="line2d_29">
      <g>
       <use style="stroke:#000000;stroke-width:0.5;" x="72.0" xlink:href="#meab081a3e0" y="92.5714285714"/>
      </g>
     </g>
     <g id="line2d_30">
      <g>
       <use style="stroke:#000000;stroke-width:0.5;" x="518.4" xlink:href="#m8d3e74d8ba" y="92.5714285714"/>
      </g>
     </g>
     <g id="text_15">
      <!-- 0 -->
      <g transform="translate(60.365 95.8826785714)scale(0.12 -0.12)">
       <use xlink:href="#BitstreamVeraSans-Roman-30"/>
      </g>
     </g>
    </g>
    <g id="ytick_8">
     <g id="line2d_31">
      <g>
       <use style="stroke:#000000;stroke-width:0.5;" x="72.0" xlink:href="#meab081a3e0" y="43.2"/>
      </g>
     </g>
     <g id="line2d_32">
      <g>
       <use style="stroke:#000000;stroke-width:0.5;" x="518.4" xlink:href="#m8d3e74d8ba" y="43.2"/>
      </g>
     </g>
     <g id="text_16">
      <!-- 10 -->
      <g transform="translate(52.73 46.51125)scale(0.12 -0.12)">
       <use xlink:href="#BitstreamVeraSans-Roman-31"/>
       <use x="63.623046875" xlink:href="#BitstreamVeraSans-Roman-30"/>
      </g>
     </g>
    </g>
   </g>
   <g id="text_17">
    <!-- (1, 99.0) -->
    <defs>
     <path id="BitstreamVeraSans-Roman-20"/>
     <path d="M 8.015625 75.875 
L 15.828125 75.875 
Q 23.140625 64.359375 26.78125 53.3125 
Q 30.421875 42.28125 30.421875 31.390625 
Q 30.421875 20.453125 26.78125 9.375 
Q 23.140625 -1.703125 15.828125 -13.1875 
L 8.015625 -13.1875 
Q 14.5 -2 17.703125 9.0625 
Q 20.90625 20.125 20.90625 31.390625 
Q 20.90625 42.671875 17.703125 53.65625 
Q 14.5 64.65625 8.015625 75.875 
" id="BitstreamVeraSans-Roman-29"/>
     <path d="M 31 75.875 
Q 24.46875 64.65625 21.28125 53.65625 
Q 18.109375 42.671875 18.109375 31.390625 
Q 18.109375 20.125 21.3125 9.0625 
Q 24.515625 -2 31 -13.1875 
L 23.1875 -13.1875 
Q 15.875 -1.703125 12.234375 9.375 
Q 8.59375 20.453125 8.59375 31.390625 
Q 8.59375 42.28125 12.203125 53.3125 
Q 15.828125 64.359375 23.1875 75.875 
z
" id="BitstreamVeraSans-Roman-28"/>
     <path d="M 10.984375 1.515625 
L 10.984375 10.5 
Q 14.703125 8.734375 18.5 7.8125 
Q 22.3125 6.890625 25.984375 6.890625 
Q 35.75 6.890625 40.890625 13.453125 
Q 46.046875 20.015625 46.78125 33.40625 
Q 43.953125 29.203125 39.59375 26.953125 
Q 35.25 24.703125 29.984375 24.703125 
Q 19.046875 24.703125 12.671875 31.3125 
Q 6.296875 37.9375 6.296875 49.421875 
Q 6.296875 60.640625 12.9375 67.421875 
Q 19.578125 74.21875 30.609375 74.21875 
Q 43.265625 74.21875 49.921875 64.515625 
Q 56.59375 54.828125 56.59375 36.375 
Q 56.59375 19.140625 48.40625 8.859375 
Q 40.234375 -1.421875 26.421875 -1.421875 
Q 22.703125 -1.421875 18.890625 -0.6875 
Q 15.09375 0.046875 10.984375 1.515625 
M 30.609375 32.421875 
Q 37.25 32.421875 41.125 36.953125 
Q 45.015625 41.5 45.015625 49.421875 
Q 45.015625 57.28125 41.125 61.84375 
Q 37.25 66.40625 30.609375 66.40625 
Q 23.96875 66.40625 20.09375 61.84375 
Q 16.21875 57.28125 16.21875 49.421875 
Q 16.21875 41.5 20.09375 36.953125 
Q 23.96875 32.421875 30.609375 32.421875 
" id="BitstreamVeraSans-Roman-39"/>
     <path d="M 11.71875 12.40625 
L 22.015625 12.40625 
L 22.015625 4 
L 14.015625 -11.625 
L 7.71875 -11.625 
L 11.71875 4 
z
" id="BitstreamVeraSans-Roman-2c"/>
     <path d="M 10.6875 12.40625 
L 21 12.40625 
L 21 0 
L 10.6875 0 
z
" id="BitstreamVeraSans-Roman-2e"/>
    </defs>
    <g transform="translate(241.8552 123.576685714)scale(0.05 -0.05)">
     <use xlink:href="#BitstreamVeraSans-Roman-28"/>
     <use x="39.013671875" xlink:href="#BitstreamVeraSans-Roman-31"/>
     <use x="102.63671875" xlink:href="#BitstreamVeraSans-Roman-2c"/>
     <use x="134.423828125" xlink:href="#BitstreamVeraSans-Roman-20"/>
     <use x="166.2109375" xlink:href="#BitstreamVeraSans-Roman-39"/>
     <use x="229.833984375" xlink:href="#BitstreamVeraSans-Roman-39"/>
     <use x="293.45703125" xlink:href="#BitstreamVeraSans-Roman-2e"/>
     <use x="325.244140625" xlink:href="#BitstreamVeraSans-Roman-30"/>
     <use x="388.8671875" xlink:href="#BitstreamVeraSans-Roman-29"/>
    </g>
   </g>
   <g id="text_18">
    <!-- (1, 99.0) -->
    <g transform="translate(350.7768 154.384457143)scale(0.05 -0.05)">
     <use xlink:href="#BitstreamVeraSans-Roman-28"/>
     <use x="39.013671875" xlink:href="#BitstreamVeraSans-Roman-31"/>
     <use x="102.63671875" xlink:href="#BitstreamVeraSans-Roman-2c"/>
     <use x="134.423828125" xlink:href="#BitstreamVeraSans-Roman-20"/>
     <use x="166.2109375" xlink:href="#BitstreamVeraSans-Roman-39"/>
     <use x="229.833984375" xlink:href="#BitstreamVeraSans-Roman-39"/>
     <use x="293.45703125" xlink:href="#BitstreamVeraSans-Roman-2e"/>
     <use x="325.244140625" xlink:href="#BitstreamVeraSans-Roman-30"/>
     <use x="388.8671875" xlink:href="#BitstreamVeraSans-Roman-29"/>
    </g>
   </g>
   <g id="text_19">
    <!-- (1, 85.1) -->
    <g transform="translate(484.6968 292.624457143)scale(0.05 -0.05)">
     <use xlink:href="#BitstreamVeraSans-Roman-28"/>
     <use x="39.013671875" xlink:href="#BitstreamVeraSans-Roman-31"/>
     <use x="102.63671875" xlink:href="#BitstreamVeraSans-Roman-2c"/>
     <use x="134.423828125" xlink:href="#BitstreamVeraSans-Roman-20"/>
     <use x="166.2109375" xlink:href="#BitstreamVeraSans-Roman-38"/>
     <use x="229.833984375" xlink:href="#BitstreamVeraSans-Roman-35"/>
     <use x="293.45703125" xlink:href="#BitstreamVeraSans-Roman-2e"/>
     <use x="325.244140625" xlink:href="#BitstreamVeraSans-Roman-31"/>
     <use x="388.8671875" xlink:href="#BitstreamVeraSans-Roman-29"/>
    </g>
   </g>
   <g id="text_20">
    <!-- (1, 84.2) -->
    <g transform="translate(397.6488 183.019885714)scale(0.05 -0.05)">
     <use xlink:href="#BitstreamVeraSans-Roman-28"/>
     <use x="39.013671875" xlink:href="#BitstreamVeraSans-Roman-31"/>
     <use x="102.63671875" xlink:href="#BitstreamVeraSans-Roman-2c"/>
     <use x="134.423828125" xlink:href="#BitstreamVeraSans-Roman-20"/>
     <use x="166.2109375" xlink:href="#BitstreamVeraSans-Roman-38"/>
     <use x="229.833984375" xlink:href="#BitstreamVeraSans-Roman-34"/>
     <use x="293.45703125" xlink:href="#BitstreamVeraSans-Roman-2e"/>
     <use x="325.244140625" xlink:href="#BitstreamVeraSans-Roman-32"/>
     <use x="388.8671875" xlink:href="#BitstreamVeraSans-Roman-29"/>
    </g>
   </g>
   <g id="text_21">
    <!-- (1, 83.2) -->
    <g transform="translate(417.2904 194.079085714)scale(0.05 -0.05)">
     <use xlink:href="#BitstreamVeraSans-Roman-28"/>
     <use x="39.013671875" xlink:href="#BitstreamVeraSans-Roman-31"/>
     <use x="102.63671875" xlink:href="#BitstreamVeraSans-Roman-2c"/>
     <use x="134.423828125" xlink:href="#BitstreamVeraSans-Roman-20"/>
     <use x="166.2109375" xlink:href="#BitstreamVeraSans-Roman-38"/>
     <use x="229.833984375" xlink:href="#BitstreamVeraSans-Roman-33"/>
     <use x="293.45703125" xlink:href="#BitstreamVeraSans-Roman-2e"/>
     <use x="325.244140625" xlink:href="#BitstreamVeraSans-Roman-32"/>
     <use x="388.8671875" xlink:href="#BitstreamVeraSans-Roman-29"/>
    </g>
   </g>
   <g id="text_22">
    <!-- (1, 81.5) -->
    <g transform="translate(468.18 250.56)scale(0.05 -0.05)">
     <use xlink:href="#BitstreamVeraSans-Roman-28"/>
     <use x="39.013671875" xlink:href="#BitstreamVeraSans-Roman-31"/>
     <use x="102.63671875" xlink:href="#BitstreamVeraSans-Roman-2c"/>
     <use x="134.423828125" xlink:href="#BitstreamVeraSans-Roman-20"/>
     <use x="166.2109375" xlink:href="#BitstreamVeraSans-Roman-38"/>
     <use x="229.833984375" xlink:href="#BitstreamVeraSans-Roman-31"/>
     <use x="293.45703125" xlink:href="#BitstreamVeraSans-Roman-2e"/>
     <use x="325.244140625" xlink:href="#BitstreamVeraSans-Roman-35"/>
     <use x="388.8671875" xlink:href="#BitstreamVeraSans-Roman-29"/>
    </g>
   </g>
   <g id="text_23">
    <!-- (1, 81.5) -->
    <g transform="translate(358.3656 160.901485714)scale(0.05 -0.05)">
     <use xlink:href="#BitstreamVeraSans-Roman-28"/>
     <use x="39.013671875" xlink:href="#BitstreamVeraSans-Roman-31"/>
     <use x="102.63671875" xlink:href="#BitstreamVeraSans-Roman-2c"/>
     <use x="134.423828125" xlink:href="#BitstreamVeraSans-Roman-20"/>
     <use x="166.2109375" xlink:href="#BitstreamVeraSans-Roman-38"/>
     <use x="229.833984375" xlink:href="#BitstreamVeraSans-Roman-31"/>
     <use x="293.45703125" xlink:href="#BitstreamVeraSans-Roman-2e"/>
     <use x="325.244140625" xlink:href="#BitstreamVeraSans-Roman-35"/>
     <use x="388.8671875" xlink:href="#BitstreamVeraSans-Roman-29"/>
    </g>
   </g>
   <g id="text_24">
    <!-- (1, 81.0) -->
    <g transform="translate(452.556 247.597714286)scale(0.05 -0.05)">
     <use xlink:href="#BitstreamVeraSans-Roman-28"/>
     <use x="39.013671875" xlink:href="#BitstreamVeraSans-Roman-31"/>
     <use x="102.63671875" xlink:href="#BitstreamVeraSans-Roman-2c"/>
     <use x="134.423828125" xlink:href="#BitstreamVeraSans-Roman-20"/>
     <use x="166.2109375" xlink:href="#BitstreamVeraSans-Roman-38"/>
     <use x="229.833984375" xlink:href="#BitstreamVeraSans-Roman-31"/>
     <use x="293.45703125" xlink:href="#BitstreamVeraSans-Roman-2e"/>
     <use x="325.244140625" xlink:href="#BitstreamVeraSans-Roman-30"/>
     <use x="388.8671875" xlink:href="#BitstreamVeraSans-Roman-29"/>
    </g>
   </g>
   <g id="text_25">
    <!-- (1, 80.6) -->
    <g transform="translate(391.8456 175.712914286)scale(0.05 -0.05)">
     <use xlink:href="#BitstreamVeraSans-Roman-28"/>
     <use x="39.013671875" xlink:href="#BitstreamVeraSans-Roman-31"/>
     <use x="102.63671875" xlink:href="#BitstreamVeraSans-Roman-2c"/>
     <use x="134.423828125" xlink:href="#BitstreamVeraSans-Roman-20"/>
     <use x="166.2109375" xlink:href="#BitstreamVeraSans-Roman-38"/>
     <use x="229.833984375" xlink:href="#BitstreamVeraSans-Roman-30"/>
     <use x="293.45703125" xlink:href="#BitstreamVeraSans-Roman-2e"/>
     <use x="325.244140625" xlink:href="#BitstreamVeraSans-Roman-36"/>
     <use x="388.8671875" xlink:href="#BitstreamVeraSans-Roman-29"/>
    </g>
   </g>
   <g id="text_26">
    <!-- (1, 79.9) -->
    <defs>
     <path d="M 8.203125 72.90625 
L 55.078125 72.90625 
L 55.078125 68.703125 
L 28.609375 0 
L 18.3125 0 
L 43.21875 64.59375 
L 8.203125 64.59375 
z
" id="BitstreamVeraSans-Roman-37"/>
    </defs>
    <g transform="translate(302.5656 136.215771429)scale(0.05 -0.05)">
     <use xlink:href="#BitstreamVeraSans-Roman-28"/>
     <use x="39.013671875" xlink:href="#BitstreamVeraSans-Roman-31"/>
     <use x="102.63671875" xlink:href="#BitstreamVeraSans-Roman-2c"/>
     <use x="134.423828125" xlink:href="#BitstreamVeraSans-Roman-20"/>
     <use x="166.2109375" xlink:href="#BitstreamVeraSans-Roman-37"/>
     <use x="229.833984375" xlink:href="#BitstreamVeraSans-Roman-39"/>
     <use x="293.45703125" xlink:href="#BitstreamVeraSans-Roman-2e"/>
     <use x="325.244140625" xlink:href="#BitstreamVeraSans-Roman-39"/>
     <use x="388.8671875" xlink:href="#BitstreamVeraSans-Roman-29"/>
    </g>
   </g>
   <g id="text_27">
    <!-- (1, 79.8) -->
    <g transform="translate(486.036 301.906285714)scale(0.05 -0.05)">
     <use xlink:href="#BitstreamVeraSans-Roman-28"/>
     <use x="39.013671875" xlink:href="#BitstreamVeraSans-Roman-31"/>
     <use x="102.63671875" xlink:href="#BitstreamVeraSans-Roman-2c"/>
     <use x="134.423828125" xlink:href="#BitstreamVeraSans-Roman-20"/>
     <use x="166.2109375" xlink:href="#BitstreamVeraSans-Roman-37"/>
     <use x="229.833984375" xlink:href="#BitstreamVeraSans-Roman-39"/>
     <use x="293.45703125" xlink:href="#BitstreamVeraSans-Roman-2e"/>
     <use x="325.244140625" xlink:href="#BitstreamVeraSans-Roman-38"/>
     <use x="388.8671875" xlink:href="#BitstreamVeraSans-Roman-29"/>
    </g>
   </g>
   <g id="text_28">
    <!-- (1, 79.2) -->
    <g transform="translate(472.1976 258.656914286)scale(0.05 -0.05)">
     <use xlink:href="#BitstreamVeraSans-Roman-28"/>
     <use x="39.013671875" xlink:href="#BitstreamVeraSans-Roman-31"/>
     <use x="102.63671875" xlink:href="#BitstreamVeraSans-Roman-2c"/>
     <use x="134.423828125" xlink:href="#BitstreamVeraSans-Roman-20"/>
     <use x="166.2109375" xlink:href="#BitstreamVeraSans-Roman-37"/>
     <use x="229.833984375" xlink:href="#BitstreamVeraSans-Roman-39"/>
     <use x="293.45703125" xlink:href="#BitstreamVeraSans-Roman-2e"/>
     <use x="325.244140625" xlink:href="#BitstreamVeraSans-Roman-32"/>
     <use x="388.8671875" xlink:href="#BitstreamVeraSans-Roman-29"/>
    </g>
   </g>
   <g id="text_29">
    <!-- (1, 78.7) -->
    <g transform="translate(420.4152 202.570971429)scale(0.05 -0.05)">
     <use xlink:href="#BitstreamVeraSans-Roman-28"/>
     <use x="39.013671875" xlink:href="#BitstreamVeraSans-Roman-31"/>
     <use x="102.63671875" xlink:href="#BitstreamVeraSans-Roman-2c"/>
     <use x="134.423828125" xlink:href="#BitstreamVeraSans-Roman-20"/>
     <use x="166.2109375" xlink:href="#BitstreamVeraSans-Roman-37"/>
     <use x="229.833984375" xlink:href="#BitstreamVeraSans-Roman-38"/>
     <use x="293.45703125" xlink:href="#BitstreamVeraSans-Roman-2e"/>
     <use x="325.244140625" xlink:href="#BitstreamVeraSans-Roman-37"/>
     <use x="388.8671875" xlink:href="#BitstreamVeraSans-Roman-29"/>
    </g>
   </g>
   <g id="text_30">
    <!-- (1, 78.7) -->
    <g transform="translate(338.724 149.842285714)scale(0.05 -0.05)">
     <use xlink:href="#BitstreamVeraSans-Roman-28"/>
     <use x="39.013671875" xlink:href="#BitstreamVeraSans-Roman-31"/>
     <use x="102.63671875" xlink:href="#BitstreamVeraSans-Roman-2c"/>
     <use x="134.423828125" xlink:href="#BitstreamVeraSans-Roman-20"/>
     <use x="166.2109375" xlink:href="#BitstreamVeraSans-Roman-37"/>
     <use x="229.833984375" xlink:href="#BitstreamVeraSans-Roman-38"/>
     <use x="293.45703125" xlink:href="#BitstreamVeraSans-Roman-2e"/>
     <use x="325.244140625" xlink:href="#BitstreamVeraSans-Roman-37"/>
     <use x="388.8671875" xlink:href="#BitstreamVeraSans-Roman-29"/>
    </g>
   </g>
   <g id="text_31">
    <!-- (1, 78.3) -->
    <g transform="translate(450.324 238.710857143)scale(0.05 -0.05)">
     <use xlink:href="#BitstreamVeraSans-Roman-28"/>
     <use x="39.013671875" xlink:href="#BitstreamVeraSans-Roman-31"/>
     <use x="102.63671875" xlink:href="#BitstreamVeraSans-Roman-2c"/>
     <use x="134.423828125" xlink:href="#BitstreamVeraSans-Roman-20"/>
     <use x="166.2109375" xlink:href="#BitstreamVeraSans-Roman-37"/>
     <use x="229.833984375" xlink:href="#BitstreamVeraSans-Roman-38"/>
     <use x="293.45703125" xlink:href="#BitstreamVeraSans-Roman-2e"/>
     <use x="325.244140625" xlink:href="#BitstreamVeraSans-Roman-33"/>
     <use x="388.8671875" xlink:href="#BitstreamVeraSans-Roman-29"/>
    </g>
   </g>
  </g>
 </g>
 <defs>
  <clipPath id="p5858a016c0">
   <rect height="345.6" width="446.4" x="72.0" y="43.2"/>
  </clipPath>
 </defs>
</svg>
